<?xml version="1.0" standalone="no"?>
<!DOCTYPE svg PUBLIC "-//W3C//DTD SVG 20010904//EN"
 "http://www.w3.org/TR/2001/REC-SVG-20010904/DTD/svg10.dtd">
<svg version="1.0" xmlns="http://www.w3.org/2000/svg"
 width="512.000000pt" height="512.000000pt" viewBox="0 0 512.000000 512.000000"
 preserveAspectRatio="xMidYMid meet">

<g transform="translate(0.000000,512.000000) scale(0.100000,-0.100000)"
fill="#3057D5" stroke="none">
<path d="M1460 4482 l-1085 -627 -3 -350 -2 -350 1341 -761 c738 -418 1341
-764 1341 -769 0 -11 -472 -285 -491 -285 -8 0 -246 133 -528 296 l-513 296 0
159 0 159 -160 0 -160 0 0 -252 0 -253 680 -393 680 -392 416 240 415 241 247
-140 c136 -77 248 -143 249 -148 3 -7 -1274 -751 -1317 -768 -10 -3 -371 199
-940 529 l-925 534 -3 401 -2 401 -165 0 -165 0 2 -492 3 -492 1080 -624 c594
-343 1087 -626 1096 -629 9 -2 497 274 1105 624 l1089 629 3 350 2 349 -357
207 c-1662 960 -2298 1330 -2301 1337 -2 5 103 70 232 144 l236 136 520 -301
520 -300 0 -159 0 -159 160 0 160 0 0 253 0 252 -680 393 -681 392 -398 -230
c-219 -126 -402 -230 -405 -230 -11 0 -496 283 -496 289 0 6 1275 744 1294
749 7 1 428 -238 936 -531 l925 -534 3 -402 2 -401 165 0 165 0 -2 492 -3 492
-1085 628 c-597 345 -1092 627 -1100 627 -8 0 -503 -282 -1100 -627z m568
-1315 c592 -343 1373 -794 1734 -1003 l657 -379 1 -167 0 -167 -72 -42 c-40
-23 -84 -48 -98 -56 -26 -15 -65 7 -3185 1778 l-360 204 0 169 0 169 110 64
c60 35 116 61 123 58 6 -2 497 -285 1090 -628z"/>
</g>
</svg>
